<?xml version="1.0" encoding="iso-8859-1"?>
<!-- Uploaded to: SVG Repo, www.svgrepo.com, Generator: SVG Repo Mixer Tools -->
<svg fill="#ff0000" height="800px" width="800px" version="1.1" id="Layer_1" xmlns="http://www.w3.org/2000/svg" xmlns:xlink="http://www.w3.org/1999/xlink" 
	 viewBox="0 0 512 512" xml:space="preserve">
<g>
	<g>
		<path d="M102.4,320c-18.825,0-34.133,15.309-34.133,34.133c0,18.825,15.309,34.133,34.133,34.133
			c18.825,0,34.133-15.309,34.133-34.133C136.533,335.309,121.225,320,102.4,320z M102.4,371.2c-9.412,0-17.067-7.654-17.067-17.067
			c0-9.412,7.654-17.067,17.067-17.067c9.412,0,17.067,7.654,17.067,17.067C119.467,363.546,111.812,371.2,102.4,371.2z"/>
	</g>
</g>
<g>
	<g>
		<path d="M366.933,320c-18.825,0-34.133,15.309-34.133,34.133c0,18.825,15.309,34.133,34.133,34.133s34.133-15.309,34.133-34.133
			C401.067,335.309,385.758,320,366.933,320z M366.933,371.2c-9.412,0-17.067-7.654-17.067-17.067
			c0-9.412,7.654-17.067,17.067-17.067S384,344.721,384,354.133C384,363.546,376.346,371.2,366.933,371.2z"/>
	</g>
</g>
<g>
	<g>
		<path d="M384,166.4h-93.867c-4.719,0-8.533,3.814-8.533,8.533v34.133c0,4.719,3.814,8.533,8.533,8.533H384
			c4.719,0,8.533-3.814,8.533-8.533v-34.133C392.533,170.214,388.719,166.4,384,166.4z M375.467,200.533h-76.8v-17.067h76.8V200.533
			z"/>
	</g>
</g>
<g>
	<g>
		<path d="M460.8,183.467h-8.533v-8.533c0-4.719-3.814-8.533-8.533-8.533c-4.719,0-8.533,3.814-8.533,8.533v8.533h-8.533
			c-4.719,0-8.533,3.814-8.533,8.533s3.814,8.533,8.533,8.533h8.533v8.533c0,4.719,3.814,8.533,8.533,8.533
			c4.719,0,8.533-3.814,8.533-8.533v-8.533h8.533c4.719,0,8.533-3.814,8.533-8.533S465.519,183.467,460.8,183.467z"/>
	</g>
</g>
<g>
	<g>
		<path d="M503.467,123.733H187.733c-36.779,0-66.799,45.892-75.75,72.218l-57.31,57.301L4.719,278.238
			C1.826,279.68,0,282.633,0,285.867v68.267c0,4.719,3.814,8.533,8.533,8.533h34.133c4.719,0,8.533-3.814,8.533-8.533
			c0-28.237,22.963-51.2,51.2-51.2c28.237,0,51.2,22.963,51.2,51.2c0,4.719,3.814,8.533,8.533,8.533H307.2
			c4.719,0,8.533-3.814,8.533-8.533c0-28.237,22.963-51.2,51.2-51.2c28.237,0,51.2,22.963,51.2,51.2
			c0,4.719,3.814,8.533,8.533,8.533h76.8c4.719,0,8.533-3.814,8.533-8.533V132.267C512,127.548,508.186,123.733,503.467,123.733z
			 M153.6,309.12c-12.518-14.217-30.805-23.253-51.2-23.253c-34.748,0-63.522,26.112-67.738,59.733H17.067V320H25.6
			c4.719,0,8.533-3.814,8.533-8.533s-3.814-8.533-8.533-8.533h-8.533V291.14l45.022-22.511l91.511-7.629V309.12z M156.041,243.678
			l-73.805,6.153l41.6-41.6l50.202-12.553L156.041,243.678z M170.667,277.333v-17.067h51.2v17.067H170.667z M221.867,294.4v17.067
			h-51.2V294.4H221.867z M299.196,345.6H170.129c-0.742-5.965-2.304-11.682-4.489-17.067h138.044
			C301.491,333.918,299.938,339.635,299.196,345.6z M290.133,294.4v17.067h-51.2V294.4H290.133z M238.933,277.333v-17.067h51.2
			v17.067H238.933z M313.711,311.467H307.2V294.4h26.854C326.212,298.735,319.292,304.529,313.711,311.467z M358.4,277.333h-51.2
			v-17.067h51.2V277.333z M426.667,311.467h-6.511c-5.581-6.938-12.501-12.732-20.343-17.067h26.854V311.467z M426.667,277.333
			h-51.2v-17.067h51.2V277.333z M494.933,345.6h-60.262c-0.751-5.965-2.304-11.682-4.489-17.067h64.751V345.6z M494.933,311.467
			h-51.2V294.4h51.2V311.467z M494.933,277.333h-51.2v-17.067h51.2V277.333z M494.933,243.2H174.447l21.274-56.73
			c1.109-2.978,0.486-6.315-1.621-8.687c-2.116-2.355-5.376-3.379-8.431-2.594l-51.703,12.928c3.695-7.142,8.516-14.72,14.08-21.717
			h22.622c4.719,0,8.533-3.814,8.533-8.533s-3.814-8.533-8.533-8.533h-5.282c7.134-5.188,14.729-8.533,22.349-8.533h307.2V243.2z"/>
	</g>
</g>
</svg>