<svg width="120" height="40" viewBox="0 0 120 40" fill="none" xmlns="http://www.w3.org/2000/svg">
<path d="M2.77993 14.9141H6.90216C7.10901 14.9141 7.30739 14.995 7.45365 15.139C7.59992 15.2829 7.68209 15.4782 7.68209 15.6819V35.2317C7.68209 35.4353 7.59992 35.6306 7.45365 35.7746C7.30739 35.9186 7.10901 35.9995 6.90216 35.9995H2.77993C2.57308 35.9995 2.3747 35.9186 2.22844 35.7746C2.08217 35.6306 2 35.4353 2 35.2317V15.6819C2 15.4782 2.08217 15.2829 2.22844 15.139C2.3747 14.995 2.57308 14.9141 2.77993 14.9141V14.9141Z" fill="#CE0037"/>
<path d="M2.76205 4C2.66197 3.99999 2.56287 4.01938 2.47041 4.05708C2.37795 4.09478 2.29393 4.15004 2.22317 4.2197C2.1524 4.28937 2.09627 4.37208 2.05798 4.46311C2.01969 4.55414 1.99999 4.6517 2 4.75022V8.84367C1.99999 8.94221 2.01969 9.03978 2.05797 9.13082C2.09626 9.22186 2.15239 9.30459 2.22316 9.37427C2.29392 9.44395 2.37793 9.49923 2.47039 9.53696C2.56286 9.57468 2.66196 9.5941 2.76205 9.59411H11.8414C12.0435 9.59411 12.2373 9.67315 12.3802 9.81385C12.5231 9.95454 12.6034 10.1454 12.6034 10.3443V35.2497C12.6034 35.3482 12.6231 35.4458 12.6614 35.5368C12.6997 35.6278 12.7558 35.7106 12.8266 35.7802C12.8974 35.8499 12.9814 35.9051 13.0738 35.9428C13.1663 35.9805 13.2654 35.9999 13.3655 35.9999H17.5715C17.6716 36 17.7707 35.9806 17.8632 35.9429C17.9557 35.9052 18.0397 35.85 18.1105 35.7803C18.1813 35.7106 18.2374 35.6279 18.2757 35.5368C18.314 35.4458 18.3336 35.3482 18.3336 35.2497V10.3443C18.3337 10.1453 18.414 9.95452 18.5569 9.81384C18.6999 9.67315 18.8937 9.59411 19.0959 9.59411H29.3398C29.5419 9.59406 29.7357 9.51497 29.8786 9.37424C30.0215 9.23351 30.1018 9.04267 30.1018 8.84367V4.75022C30.1018 4.55125 30.0215 4.36043 29.8786 4.21974C29.7357 4.07904 29.5419 4 29.3398 4H2.76205Z" fill="#003A70"/>
<path d="M33.807 4C33.7069 4 33.6078 4.01941 33.5153 4.05711C33.4229 4.09481 33.3389 4.15007 33.2681 4.21974C33.1974 4.2894 33.1412 4.37211 33.1029 4.46313C33.0646 4.55415 33.0449 4.6517 33.0449 4.75022V8.84367C33.0449 9.04267 33.1252 9.23351 33.2681 9.37424C33.411 9.51497 33.6048 9.59406 33.807 9.59411H40.7152C42.2879 9.59411 43.4356 10.0129 44.1582 10.8504C44.8755 11.6742 45.2609 12.7285 45.2414 13.8134C45.2421 14.3768 45.1526 14.9367 44.9763 15.4726C44.8089 15.9935 44.5388 16.4767 44.1816 16.8947C43.7992 17.3269 43.3216 17.6675 42.7852 17.8904C42.2075 18.1439 41.5173 18.2704 40.7146 18.2696H28.0501C26.252 18.2696 24.9517 18.6647 24.1493 19.455C23.3469 20.2452 22.9456 21.541 22.9453 23.3423V35.2497C22.9453 35.3482 22.9651 35.4458 23.0034 35.5368C23.0417 35.6279 23.0978 35.7106 23.1686 35.7802C23.2394 35.8499 23.3234 35.9052 23.4159 35.9428C23.5084 35.9805 23.6075 35.9999 23.7076 35.9999H27.8656C27.9657 35.9999 28.0648 35.9805 28.1572 35.9428C28.2497 35.9052 28.3337 35.8499 28.4045 35.7802C28.4753 35.7106 28.5315 35.6279 28.5698 35.5368C28.6081 35.4458 28.6278 35.3482 28.6278 35.2497V25.1827C28.6278 24.77 28.7943 24.3742 29.0907 24.0823C29.3871 23.7904 29.7891 23.6264 30.2084 23.6264H37.4863C37.6189 23.6264 37.7491 23.6605 37.8642 23.7252C37.9794 23.79 38.0753 23.8832 38.1427 23.9956L45.1164 35.6309C45.1838 35.7433 45.2797 35.8365 45.3948 35.9012C45.5099 35.9659 45.6401 35.9999 45.7727 35.9999H50.3213C50.4552 35.9999 50.5868 35.9651 50.7028 35.899C50.8187 35.833 50.9149 35.738 50.9817 35.6237C51.0485 35.5094 51.0835 35.3798 51.0832 35.2479C51.0829 35.116 51.0473 34.9865 50.98 34.8725L44.5596 24.0025C44.5037 23.9082 44.4695 23.803 44.4592 23.6943C44.449 23.5856 44.4631 23.476 44.5004 23.3732C44.5377 23.2704 44.5974 23.1769 44.6753 23.0992C44.7532 23.0215 44.8474 22.9615 44.9514 22.9234C45.7821 22.629 46.562 22.2106 47.2637 21.6829C48.1043 21.0478 48.822 20.269 49.3824 19.3837C49.9268 18.5175 50.3328 17.5742 50.5864 16.5867C50.8416 15.6029 50.971 14.5915 50.9716 13.5761C50.9754 12.3352 50.772 11.102 50.3697 9.92598C49.9831 8.78158 49.3414 7.73677 48.4917 6.86803C47.6406 5.99932 46.5574 5.30405 45.242 4.78222C43.925 4.26045 42.3518 3.99972 40.5225 4H33.807Z" fill="#003A70"/>
<path d="M64.4735 12.2624H60.4688V11.082H61.8237V5.18042H60.4688V4H64.4735V5.18042H63.1188V11.082H64.4735V12.2624Z" fill="#003A70"/>
<path d="M69.3975 5.96107C69.9166 5.96107 70.3321 6.0772 70.6439 6.30947C70.9619 6.55053 71.1964 6.88243 71.3155 7.25976C71.4477 7.03776 71.6132 6.83674 71.8065 6.66352C72.0297 6.45796 72.2848 6.28877 72.5621 6.16231C72.8507 6.02807 73.1663 5.95937 73.4855 5.96128C74.0289 5.96128 74.4525 6.07742 74.7564 6.30968C75.0632 6.54739 75.2874 6.8732 75.3978 7.24195C75.5264 7.66496 75.5889 8.10477 75.5832 8.54628V12.2645H74.337V8.61731C74.337 8.16102 74.2491 7.79112 74.0733 7.50759C73.8974 7.22407 73.5656 7.08241 73.0777 7.08262C72.8673 7.07534 72.6575 7.10975 72.4609 7.18381C72.2642 7.25788 72.0847 7.37009 71.9329 7.51378C71.7883 7.64754 71.6736 7.8095 71.5962 7.98933C71.5187 8.16916 71.4801 8.36291 71.483 8.55823V12.2646H70.2367V8.59321C70.2528 8.21104 70.1524 7.83287 69.9483 7.50738C69.7569 7.22428 69.4412 7.08262 69.0014 7.08241C68.7164 7.07775 68.4352 7.14708 68.186 7.28343C67.9559 7.40846 67.762 7.58928 67.6228 7.80875C67.4864 8.02679 67.4157 8.2785 67.419 8.53455V12.2642H66.1719V6.0675H67.419V7.05927C67.6337 6.75414 67.9092 6.49513 68.2286 6.29795C68.5755 6.0737 68.9825 5.9564 69.3975 5.96107V5.96107Z" fill="#003A70"/>
<path d="M80.5272 5.96124C81.058 5.95349 81.5802 6.09483 82.0323 6.36872C82.4791 6.64414 82.8416 7.03371 83.0812 7.49592C83.3339 8.01438 83.4651 8.58209 83.4651 9.15714C83.4651 9.73219 83.3339 10.2999 83.0812 10.8184C82.8431 11.2829 82.483 11.6762 82.0384 11.9574C81.5977 12.2331 81.0851 12.3766 80.563 12.3705C80.1399 12.3762 79.7219 12.2789 79.3463 12.0872C79.0206 11.9273 78.7295 11.707 78.4889 11.4383V14.8615H77.2422V6.05615H78.4888V6.96485C78.7084 6.67483 78.9912 6.43686 79.3164 6.26837C79.6856 6.06328 80.1032 5.95737 80.5272 5.96124ZM80.3593 7.08247C80.0061 7.07643 79.6586 7.17077 79.3585 7.3542C79.0669 7.53451 78.8307 7.78949 78.675 8.09184C78.5134 8.42441 78.4295 8.78841 78.4295 9.15708C78.4295 9.52576 78.5134 9.88976 78.675 10.2223C78.8301 10.5282 79.0662 10.787 79.3585 10.9716C79.6573 11.1586 80.0053 11.255 80.3593 11.2489C80.7118 11.2556 81.0584 11.1591 81.3551 10.9716C81.6442 10.7852 81.8779 10.5267 82.0323 10.2223C82.194 9.88976 82.2779 9.52576 82.2779 9.15708C82.2779 8.78841 82.194 8.42441 82.0323 8.09184C81.8773 7.79099 81.6435 7.53634 81.3551 7.3542C81.057 7.1703 80.711 7.07588 80.3593 7.08247V7.08247Z" fill="#003A70"/>
<path d="M90.6695 6.06401V12.2608H89.4225V11.3048C89.1893 11.6005 88.9002 11.849 88.5711 12.0366C88.1771 12.2695 87.7242 12.3881 87.2647 12.3786C86.7524 12.3832 86.2499 12.2396 85.8197 11.9657C85.3765 11.6818 85.0183 11.2866 84.7823 10.8208C84.5192 10.3006 84.3878 9.72561 84.3992 9.14468C84.3872 8.5642 84.5231 7.99001 84.7943 7.47446C85.0447 7.00472 85.4225 6.61256 85.8858 6.3416C86.3655 6.06559 86.9131 5.92463 87.4687 5.93412C87.873 5.92549 88.2724 6.02323 88.6255 6.21725C88.9319 6.38527 89.2026 6.60974 89.4229 6.87844V6.06412L90.6695 6.06401ZM87.552 11.2575C87.9083 11.2652 88.2589 11.1687 88.5594 10.9802C88.849 10.7934 89.0813 10.5321 89.231 10.2248C89.3948 9.88783 89.4768 9.51804 89.4705 9.14458C89.4764 8.77693 89.3943 8.41309 89.231 8.08242C89.0798 7.77757 88.8478 7.51862 88.5594 7.33294C88.2601 7.15253 87.9162 7.05657 87.5653 7.05553C87.2144 7.0545 86.8699 7.14844 86.5695 7.32708C86.2806 7.50948 86.0483 7.76663 85.8979 8.07037C85.7338 8.40505 85.6517 8.77299 85.6584 9.14458C85.6521 9.51804 85.7341 9.88783 85.8979 10.2248C86.0478 10.5321 86.28 10.7933 86.5695 10.9802C86.8619 11.1663 87.2039 11.2627 87.552 11.2572V11.2575Z" fill="#003A70"/>
<path d="M93.1829 9.15695C93.1759 9.5391 93.2731 9.91609 93.4645 10.2486C93.6433 10.5582 93.8991 10.8181 94.2078 11.0038C94.5044 11.1858 94.8471 11.2819 95.1966 11.281C95.5683 11.2894 95.9332 11.182 96.2394 10.9743C96.5073 10.7947 96.7494 10.5804 96.9592 10.3372L97.6426 11.1632C97.4707 11.3952 97.26 11.5968 97.0194 11.7592C96.7432 11.9505 96.4404 12.1016 96.1204 12.2079C95.7809 12.3223 95.4243 12.38 95.0655 12.3785C94.5154 12.3857 93.9747 12.2383 93.5066 11.9537C93.0432 11.6708 92.6646 11.2716 92.4098 10.797C92.1456 10.2882 92.0078 9.72491 92.0078 9.15348C92.0078 8.58205 92.1456 8.01878 92.4098 7.50997C92.6659 7.0378 93.0443 6.64074 93.5066 6.35909C93.9747 6.07446 94.5154 5.92704 95.0655 5.93412C95.6058 5.92457 96.1405 6.04404 96.6236 6.28231C97.0434 6.48221 97.3968 6.79552 97.6426 7.18567L96.9594 8.01204C96.7547 7.72589 96.4861 7.48966 96.1743 7.32143C95.8762 7.14061 95.5346 7.04081 95.1846 7.03222C94.8253 7.02785 94.4722 7.124 94.1663 7.30949C93.8625 7.49385 93.614 7.75462 93.4465 8.06494C93.2663 8.40117 93.1756 8.77686 93.1829 9.15695Z" fill="#003A70"/>
<path d="M100.823 12.2626H99.588V7.24629H98.2812V6.06587H99.588V4.48438H100.823V6.06587H102.285V7.24629H100.823V12.2626Z" fill="#003A70"/>
<path d="M62.374 24.0673V17.0321H60.0234V15.8047H66.0901V17.0321H63.6686V24.0673H62.374Z" fill="#003A70"/>
<path d="M71.5809 23.2498H71.5687C71.2598 23.5273 70.9024 23.7473 70.5138 23.8993C70.0137 24.1052 69.4738 24.2007 68.9322 24.1793C68.3905 24.1578 67.8602 24.0199 67.3785 23.7751C66.8909 23.5153 66.4862 23.1272 66.2095 22.6542C65.9248 22.1597 65.7797 21.5992 65.7895 21.0308C65.7895 20.3387 65.9374 19.7467 66.233 19.2547C66.5127 18.7787 66.919 18.3868 67.4082 18.1213C67.8967 17.8579 68.4456 17.7221 69.0026 17.7267C69.509 17.7211 70.007 17.8538 70.4414 18.1101C70.8735 18.3666 71.2293 18.7308 71.4729 19.1659C71.7365 19.6476 71.8685 20.1885 71.8558 20.7355L71.845 21.2554H67.0246C67.074 21.771 67.3257 22.2473 67.7261 22.5832C68.1221 22.9102 68.6237 23.0738 69.2309 23.0738C69.6024 23.0899 69.9713 23.0061 70.298 22.8314C70.5348 22.6949 70.7595 22.539 70.9696 22.3652L71.5809 23.2498ZM69.0028 18.8472C68.5682 18.8375 68.1398 18.9501 67.7679 19.1717C67.4168 19.3883 67.1852 19.7601 67.0732 20.2873H70.5978V20.2048C70.5781 19.9482 70.4845 19.7025 70.3279 19.4965C70.174 19.2939 69.9739 19.1296 69.7438 19.0169C69.5138 18.9041 69.26 18.846 69.003 18.8472H69.0028Z" fill="#003A70"/>
<path d="M73.995 20.961C73.988 21.3432 74.0852 21.7202 74.2767 22.0527C74.4554 22.3626 74.7112 22.6227 75.02 22.8086C75.3166 22.9905 75.6593 23.0865 76.0088 23.0858C76.3806 23.0944 76.7456 22.987 77.0516 22.7788C77.3195 22.5994 77.5616 22.3853 77.7714 22.1422L78.4546 22.9683C78.2826 23.2001 78.0719 23.4015 77.8314 23.5638C77.5552 23.7552 77.2524 23.9064 76.9323 24.0128C76.5928 24.1271 76.2363 24.1848 75.8775 24.1834C75.3275 24.1905 74.7868 24.0433 74.3186 23.7592C73.8555 23.476 73.4772 23.0767 73.2225 22.6021C72.9581 22.0933 72.8203 21.5299 72.8203 20.9584C72.8203 20.3869 72.9581 19.8235 73.2225 19.3147C73.4785 18.8425 73.8568 18.4454 74.3191 18.1638C74.7872 17.8792 75.3279 17.7318 75.878 17.7388C76.4184 17.7292 76.953 17.8486 77.4362 18.0869C77.856 18.2866 78.2094 18.5997 78.4553 18.9896L77.772 19.8163C77.5673 19.5302 77.2987 19.2939 76.9869 19.1257C76.6888 18.9449 76.3474 18.8451 75.9974 18.8365C75.6381 18.832 75.285 18.9282 74.9792 19.1138C74.6754 19.2981 74.427 19.5588 74.2593 19.8689C74.0791 20.2052 73.9882 20.5808 73.995 20.961V20.961Z" fill="#003A70"/>
<path d="M82.9138 17.7402C83.4807 17.7402 83.9202 17.8543 84.2324 18.0824C84.5452 18.3122 84.7745 18.635 84.8861 19.0032C85.0145 19.4202 85.077 19.8541 85.0716 20.2898V24.0671H83.8367V20.372C83.841 20.1 83.8008 19.829 83.7175 19.5696C83.6463 19.346 83.503 19.1513 83.3094 19.015C83.1179 18.8815 82.8504 18.8265 82.5068 18.8499C82.2103 18.8443 81.9172 18.9134 81.6554 19.0505C81.4171 19.1758 81.215 19.3587 81.0681 19.5819C80.9246 19.7997 80.8495 20.0542 80.8521 20.3137V24.0675H79.6172V15.332H80.8521V18.8496C81.0702 18.5339 81.3568 18.2698 81.6912 18.0765C82.0581 17.8525 82.4821 17.7358 82.9138 17.7402Z" fill="#003A70"/>
<path d="M90.0467 17.7384C90.6145 17.7384 91.0543 17.8525 91.3661 18.0806C91.6787 18.3104 91.9077 18.6333 92.019 19.0014C92.1477 19.4183 92.2105 19.8523 92.2053 20.288V24.0652H90.9704V20.3702C90.9744 20.0981 90.9338 19.8271 90.8502 19.5677C90.7794 19.3442 90.6363 19.1495 90.4428 19.0132C90.2514 18.8797 89.9836 18.8247 89.6395 18.8481C89.3431 18.8426 89.0501 18.9117 88.7883 19.0487C88.5499 19.174 88.3477 19.3568 88.2007 19.5801C88.0576 19.798 87.9826 20.0524 87.9849 20.3119V24.0657H86.75V17.868H87.9849V18.8478C88.2033 18.5324 88.4897 18.2684 88.8237 18.0746C89.1908 17.8507 89.6149 17.734 90.0467 17.7384V17.7384Z" fill="#003A70"/>
<path d="M94.7111 16.5226C94.4315 16.5226 94.2231 16.4514 94.0879 16.31C93.9481 16.159 93.8747 15.9596 93.8835 15.7555C93.8834 15.5597 93.9561 15.3708 94.0879 15.2243C94.2231 15.0671 94.4315 14.9883 94.7111 14.9883C94.9907 14.9883 95.1986 15.0595 95.3343 15.2009C95.4739 15.352 95.5472 15.5514 95.5381 15.7555C95.5386 15.9512 95.4661 16.1403 95.3343 16.2869C95.1984 16.4441 94.9907 16.5227 94.7111 16.5226ZM95.3465 24.0651H94.1117V17.8679H95.3465V24.0651Z" fill="#003A70"/>
<path d="M98.0035 20.9607C97.9964 21.3428 98.0937 21.7199 98.2852 22.0524C98.4641 22.3622 98.7199 22.6223 99.0287 22.8083C99.3253 22.9901 99.668 23.0862 100.017 23.0855C100.389 23.094 100.754 22.9866 101.06 22.7785C101.328 22.599 101.57 22.3849 101.78 22.1419L102.463 22.968C102.291 23.1997 102.08 23.401 101.84 23.5635C101.564 23.7549 101.261 23.9061 100.941 24.0125C100.601 24.1268 100.245 24.1845 99.8858 24.1831C99.3359 24.1902 98.7952 24.043 98.327 23.7589C97.8638 23.4758 97.4853 23.0766 97.2303 22.6021C96.966 22.0933 96.8281 21.5299 96.8281 20.9584C96.8281 20.3869 96.966 19.8235 97.2303 19.3147C97.4864 18.8426 97.8647 18.4455 98.327 18.1638C98.795 17.8792 99.3358 17.7318 99.8858 17.7388C100.426 17.7292 100.961 17.8486 101.444 18.0869C101.864 18.2867 102.217 18.5997 102.463 18.9896L101.78 19.8162C101.575 19.53 101.307 19.2938 100.995 19.1256C100.697 18.9447 100.355 18.8449 100.005 18.8364C99.646 18.8319 99.2928 18.928 98.987 19.1136C98.6832 19.298 98.4347 19.5586 98.2672 19.8688C98.0871 20.205 97.9964 20.5806 98.0035 20.9607V20.9607Z" fill="#003A70"/>
<path d="M109.49 17.8684V24.0657H108.243V23.1097C108.01 23.4055 107.721 23.654 107.391 23.8415C106.997 24.0746 106.544 24.1931 106.085 24.1835C105.573 24.1882 105.07 24.0446 104.64 23.7704C104.197 23.4866 103.839 23.0914 103.602 22.6257C103.339 22.1055 103.208 21.5305 103.219 20.9496C103.208 20.3691 103.343 19.7949 103.615 19.2794C103.865 18.8094 104.243 18.4171 104.706 18.1461C105.186 17.8702 105.733 17.7293 106.289 17.7388C106.693 17.7301 107.092 17.8279 107.445 18.0219C107.752 18.1898 108.023 18.4143 108.243 18.6831V17.8686L109.49 17.8684ZM106.372 23.0618C106.728 23.0696 107.079 22.9731 107.38 22.7846C107.669 22.5978 107.901 22.3367 108.051 22.0294C108.215 21.6925 108.297 21.3226 108.291 20.9491C108.297 20.5814 108.215 20.2176 108.051 19.8869C107.9 19.5821 107.668 19.3231 107.38 19.1374C107.08 18.957 106.736 18.861 106.386 18.86C106.035 18.859 105.69 18.9529 105.39 19.1316C105.101 19.3139 104.868 19.571 104.718 19.8748C104.554 20.2095 104.472 20.5775 104.479 20.9491C104.472 21.3226 104.554 21.6925 104.718 22.0294C104.868 22.3367 105.1 22.5978 105.39 22.7846C105.682 22.9709 106.024 23.0675 106.372 23.0622V23.0618Z" fill="#003A70"/>
<path d="M111.219 24.067V15.332H112.454V24.067H111.219Z" fill="#003A70"/>
<path d="M67.0039 30.2371C67.0043 30.7325 66.8469 31.2157 66.5539 31.6185C66.2633 32.0362 65.8578 32.3637 65.3849 32.5626L67.3397 35.8792L65.769 35.8673L63.9947 32.7627H62.0759V35.8673H60.7812V27.6055H64.3537C64.7958 27.606 65.2307 27.7157 65.6186 27.9243C66.0239 28.1382 66.3666 28.451 66.6139 28.8327C66.8815 29.2528 67.0171 29.7414 67.0039 30.2371V30.2371ZM64.1381 28.8327H62.0759V31.5363H64.474C64.6447 31.5446 64.8149 31.5124 64.9703 31.4425C65.1257 31.3725 65.2619 31.2669 65.3672 31.1345C65.5756 30.8764 65.6877 30.5557 65.6848 30.2261C65.6939 30.0328 65.6574 29.84 65.5784 29.6628C65.4994 29.4856 65.3798 29.3288 65.2291 29.2046C64.9226 28.9557 64.5353 28.8237 64.1381 28.8327V28.8327Z" fill="#003A70"/>
<path d="M73.9706 35.0553H73.9591C73.65 35.3326 73.2925 35.5526 72.9039 35.7047C72.4038 35.9106 71.8639 36.0062 71.3223 35.9847C70.7806 35.9633 70.2503 35.8253 69.7686 35.5806C69.281 35.3208 68.8764 34.9326 68.5999 34.4595C68.3152 33.9652 68.1703 33.4048 68.1802 32.8367C68.1802 32.1446 68.3279 31.5524 68.6234 31.0602C68.9031 30.5842 69.3093 30.1923 69.7984 29.9266C70.287 29.663 70.836 29.527 71.3931 29.5314C71.8996 29.5259 72.3976 29.6588 72.8319 29.9153C73.2641 30.1718 73.6198 30.5359 73.8632 30.9711C74.1268 31.4528 74.2589 31.9937 74.2464 32.5407L74.2349 33.0608H69.4145C69.464 33.5763 69.7157 34.0525 70.116 34.3883C70.5122 34.7153 71.0139 34.8789 71.6212 34.8789C71.9926 34.895 72.3615 34.8112 72.6882 34.6365C72.9248 34.4999 73.1492 34.344 73.3592 34.1703L73.9706 35.0553ZM71.3925 30.6532C70.9579 30.6433 70.5295 30.7557 70.1576 30.9772C69.8065 31.1942 69.575 31.5661 69.4631 32.0927H72.9873V32.0104C72.9678 31.7537 72.8742 31.5079 72.7175 31.3018C72.5636 31.0992 72.3636 30.935 72.1335 30.8223C71.9035 30.7096 71.6498 30.6517 71.3928 30.6531L71.3925 30.6532Z" fill="#003A70"/>
<path d="M79.2197 31.3011C78.9967 31.0818 78.7396 30.8987 78.4582 30.7587C78.2171 30.6281 77.9481 30.5553 77.6731 30.5462C77.5053 30.5462 77.338 30.5657 77.1748 30.6043C77.0196 30.6393 76.8767 30.7148 76.7613 30.8228C76.7022 30.885 76.6568 30.9584 76.6279 31.0386C76.599 31.1189 76.5873 31.2041 76.5935 31.289C76.5899 31.4163 76.6251 31.5417 76.6946 31.6491C76.7641 31.7564 76.8647 31.8408 76.9834 31.8914C77.286 32.0271 77.6011 32.1339 77.9244 32.2103C78.2515 32.2965 78.5721 32.4049 78.8839 32.5348C79.1858 32.6568 79.4516 32.8516 79.657 33.1013C79.8608 33.3489 79.9629 33.6972 79.9634 34.1463C79.9726 34.5044 79.8561 34.8547 79.6335 35.1381C79.4089 35.4164 79.116 35.6337 78.7823 35.7695C78.4352 35.9145 78.0618 35.9886 77.6847 35.9873C77.2242 35.9866 76.7675 35.9048 76.3363 35.7457C75.886 35.5799 75.493 35.2914 75.2031 34.9138L76.0423 34.206C76.2483 34.442 76.499 34.6364 76.7803 34.7783C77.0965 34.9247 77.4433 34.9955 77.7926 34.9848C77.948 34.9844 78.1022 34.9583 78.2488 34.9077C78.3975 34.8585 78.5313 34.7734 78.6377 34.66C78.7512 34.5313 78.8093 34.3641 78.7997 34.1939C78.8044 34.1122 78.7914 34.0304 78.7615 33.954C78.7316 33.8776 78.6856 33.8084 78.6263 33.7509C78.4917 33.6344 78.3345 33.5461 78.1641 33.4912C77.9557 33.4196 77.7436 33.3586 77.5287 33.3087C77.1838 33.2141 76.8454 33.0976 76.5157 32.9601C76.1962 32.8314 75.9126 32.6292 75.6888 32.3704C75.4691 32.1145 75.3591 31.7661 75.359 31.3253C75.3503 30.982 75.4625 30.6462 75.6766 30.3751C75.8977 30.1046 76.1846 29.8936 76.5107 29.7615C76.8591 29.6147 77.2346 29.5404 77.6136 29.543C78.032 29.5511 78.4458 29.6309 78.8364 29.7788C79.2634 29.9276 79.6407 30.189 79.9271 30.5345L79.2197 31.3011Z" fill="#003A70"/>
<path d="M87.3589 32.7652C87.3709 33.3494 87.224 33.926 86.9334 34.4355C86.66 34.9096 86.2626 35.3029 85.7825 35.5746C85.2885 35.8532 84.7275 35.9959 84.1583 35.9878C83.587 35.9954 83.0239 35.8527 82.5273 35.5746C82.0448 35.3042 81.6453 34.9107 81.371 34.4355C81.0916 33.9218 80.9453 33.3481 80.9453 32.7653C80.9453 32.1826 81.0916 31.6089 81.371 31.0952C81.6456 30.6201 82.0452 30.2266 82.5277 29.9562C83.0246 29.6786 83.5875 29.5361 84.1587 29.5433C84.7279 29.5356 85.2887 29.6782 85.7829 29.9562C86.2629 30.2281 86.6602 30.6215 86.9335 31.0957C87.2239 31.6049 87.3707 32.1813 87.3589 32.7652ZM86.1003 32.7652C86.1159 32.3828 86.0314 32.0028 85.8548 31.6617C85.6945 31.3555 85.4518 31.0985 85.1533 30.9186C84.8534 30.7403 84.5087 30.6483 84.1583 30.653C83.8064 30.6481 83.4601 30.7399 83.1583 30.9181C82.8565 31.0963 82.6111 31.3538 82.4497 31.6617C82.2729 32.0027 82.1882 32.3827 82.2035 32.7652C82.1889 33.1439 82.2737 33.5199 82.4497 33.8569C82.6119 34.1656 82.8566 34.4248 83.1575 34.6066C83.4584 34.7882 83.8054 34.8824 84.1583 34.8783C84.5095 34.8828 84.8546 34.7885 85.1533 34.6066C85.4511 34.4231 85.6934 34.1641 85.8548 33.8569C86.0306 33.5198 86.1151 33.1439 86.1003 32.7652V32.7652Z" fill="#003A70"/>
<path d="M92.9959 33.4021V29.6719H94.2302V35.869H92.9959V34.8773C92.7881 35.1913 92.5114 35.4554 92.1863 35.6502C91.8029 35.882 91.3592 35.9988 90.9094 35.9862C90.2542 35.9862 89.7227 35.7659 89.3147 35.3251C88.9068 34.8843 88.7029 34.2745 88.7031 33.4957V29.6719H89.938V33.1656C89.9351 33.4633 89.9858 33.7592 90.0877 34.0395C90.1795 34.2957 90.3464 34.5194 90.5673 34.6823C90.8143 34.852 91.1112 34.9372 91.4122 34.9247C91.8217 34.9327 92.2194 34.7897 92.5271 34.5237C92.8398 34.2561 92.996 33.8822 92.9959 33.4021Z" fill="#003A70"/>
<path d="M99.4784 30.9805C99.3842 30.9369 99.2855 30.9033 99.1841 30.8803C99.0643 30.8523 98.9416 30.8385 98.8185 30.8391C98.5542 30.8413 98.2946 30.9082 98.0632 31.0337C97.8135 31.1651 97.6012 31.3559 97.4457 31.5888C97.2774 31.8428 97.1916 32.1411 97.1995 32.4443V35.8675H95.9531V29.6703H97.1997V30.8391C97.3744 30.4628 97.65 30.1405 97.9969 29.9068C98.3226 29.6727 98.7147 29.5447 99.118 29.541C99.3519 29.5295 99.5853 29.5699 99.8012 29.6592L99.4784 30.9805Z" fill="#003A70"/>
<path d="M101.316 32.7655C101.309 33.1477 101.406 33.5247 101.598 33.8572C101.776 34.1671 102.032 34.4271 102.341 34.6131C102.638 34.7948 102.98 34.8907 103.33 34.8898C103.701 34.8983 104.066 34.791 104.372 34.5831C104.64 34.4036 104.882 34.1895 105.092 33.9464L105.775 34.7726C105.603 35.0044 105.393 35.2057 105.152 35.3681C104.876 35.5594 104.573 35.7106 104.253 35.8169C103.914 35.9313 103.557 35.9889 103.198 35.9876C102.648 35.9947 102.108 35.8476 101.639 35.5633C101.176 35.2803 100.797 34.881 100.543 34.4064C100.278 33.8976 100.141 33.3343 100.141 32.7629C100.141 32.1914 100.278 31.6282 100.543 31.1194C100.799 30.6471 101.177 30.25 101.64 29.9685C102.108 29.6837 102.649 29.5363 103.199 29.5435C103.739 29.5338 104.273 29.6532 104.757 29.8914C105.176 30.0913 105.53 30.4045 105.776 30.7946L105.093 31.6208C104.888 31.3347 104.619 31.0985 104.308 30.9302C104.009 30.7495 103.668 30.6498 103.318 30.6412C102.959 30.6368 102.605 30.733 102.3 30.9184C101.996 31.1027 101.747 31.3633 101.58 31.6734C101.4 32.0096 101.309 32.3854 101.316 32.7655V32.7655Z" fill="#003A70"/>
<path d="M112.346 35.0553H112.334C112.025 35.3328 111.668 35.5528 111.279 35.7047C110.779 35.9106 110.239 36.0062 109.697 35.9847C109.156 35.9633 108.625 35.8253 108.144 35.5806C107.656 35.3205 107.251 34.9325 106.975 34.4596C106.69 33.9652 106.545 33.4048 106.555 32.8367C106.555 32.1446 106.703 31.5524 106.999 31.0602C107.279 30.5841 107.685 30.1921 108.174 29.9266C108.663 29.663 109.212 29.5269 109.769 29.5314C110.275 29.5259 110.773 29.6588 111.208 29.9153C111.64 30.172 111.995 30.5361 112.238 30.9711C112.502 31.4526 112.635 31.9936 112.622 32.5407L112.61 33.0608H107.79C107.839 33.5764 108.091 34.0527 108.492 34.3883C108.887 34.7154 109.388 34.8789 109.996 34.8789C110.368 34.8952 110.736 34.8114 111.063 34.6365C111.3 34.4999 111.525 34.344 111.735 34.1703L112.346 35.0553ZM109.769 30.6532C109.334 30.6432 108.906 30.7556 108.534 30.9772C108.182 31.1942 107.95 31.5661 107.838 32.0927H111.364V32.0104C111.344 31.7538 111.25 31.508 111.094 31.3018C110.94 31.0992 110.74 30.9349 110.51 30.8223C110.28 30.7096 110.026 30.6516 109.769 30.6531L109.769 30.6532Z" fill="#003A70"/>
<path d="M117.594 31.3016C117.372 31.0819 117.114 30.8988 116.833 30.7591C116.592 30.6283 116.323 30.5555 116.048 30.5466C115.88 30.5466 115.713 30.5661 115.551 30.6048C115.395 30.6397 115.252 30.7151 115.136 30.8233C115.078 30.8855 115.032 30.959 115.004 31.0392C114.975 31.1194 114.963 31.2046 114.969 31.2894C114.966 31.4166 115.001 31.5419 115.07 31.6493C115.139 31.7566 115.24 31.8411 115.358 31.8918C115.661 32.0275 115.976 32.1343 116.299 32.2107C116.626 32.2969 116.947 32.4054 117.258 32.5354C117.56 32.6575 117.827 32.8523 118.032 33.1019C118.236 33.3495 118.338 33.6979 118.338 34.147C118.347 34.5051 118.231 34.8554 118.008 35.1387C117.784 35.4174 117.491 35.6348 117.157 35.7702C116.81 35.9152 116.437 35.9893 116.06 35.9879C115.599 35.9869 115.142 35.9046 114.711 35.7451C114.261 35.5792 113.868 35.2907 113.578 34.9133L114.417 34.2054C114.623 34.4415 114.873 34.6359 115.155 34.7778C115.471 34.9241 115.818 34.9948 116.168 34.9842C116.323 34.9838 116.476 34.9578 116.623 34.9071C116.772 34.8581 116.906 34.7729 117.013 34.6595C117.126 34.5308 117.184 34.3636 117.174 34.1934C117.179 34.1117 117.166 34.03 117.136 33.9537C117.106 33.8774 117.06 33.8082 117.001 33.7509C116.866 33.6344 116.709 33.5461 116.539 33.4912C116.331 33.4196 116.119 33.3586 115.904 33.3087C115.559 33.2142 115.221 33.0977 114.891 32.9601C114.571 32.8317 114.288 32.6294 114.064 32.3704C113.844 32.1145 113.734 31.7661 113.734 31.3253C113.725 30.9819 113.837 30.6461 114.052 30.3751C114.272 30.1046 114.559 29.8936 114.885 29.7615C115.233 29.6148 115.609 29.5404 115.988 29.543C116.406 29.551 116.82 29.6308 117.211 29.7788C117.638 29.9278 118.015 30.1892 118.302 30.5345L117.594 31.3016Z" fill="#003A70"/>
</svg>
