<svg width="66" height="66" viewBox="0 0 66 66" fill="none" xmlns="http://www.w3.org/2000/svg">
<g filter="url(#filter0_ddd_15_10150)">
<path d="M5 12C5 7.58172 8.58172 4 13 4H53C57.4183 4 61 7.58172 61 12V52C61 56.4183 57.4183 60 53 60H13C8.58172 60 5 56.4183 5 52V12Z" fill="white" shape-rendering="crispEdges"/>
<path d="M5.5 12C5.5 7.85786 8.85786 4.5 13 4.5H53C57.1421 4.5 60.5 7.85786 60.5 12V52C60.5 56.1421 57.1421 59.5 53 59.5H13C8.85786 59.5 5.5 56.1421 5.5 52V12Z" stroke="black" stroke-opacity="0.06" shape-rendering="crispEdges"/>
<path fill-rule="evenodd" clip-rule="evenodd" d="M31.67 20.9316C31.7841 20.8176 31.7618 20.6267 31.6215 20.547C28.3146 18.668 24.0348 19.1384 21.2149 21.9583C17.8304 25.3429 17.8304 30.8303 21.2149 34.2148L31.1145 44.1144C32.1558 45.1557 33.8442 45.1557 34.8857 44.1144L40.3657 38.6342C40.4633 38.5366 40.4633 38.3783 40.3657 38.2807L35.0581 32.9731C34.9622 32.8772 34.8073 32.8753 34.709 32.9688L34.6927 32.9843C32.5994 34.8815 29.3629 34.8203 27.3432 32.8007C25.2604 30.7179 25.2604 27.341 27.3432 25.2582L31.67 20.9316Z" fill="url(#paint0_linear_15_10150)"/>
<path d="M35.8285 29.9723C35.3078 29.4515 34.4635 29.4515 33.9429 29.9723L33.0001 30.9151C31.9586 31.9564 30.2702 31.9564 29.2288 30.9151C28.1874 29.8736 28.1874 28.1852 29.2288 27.1438L36.6852 19.6854C36.7186 19.652 36.7608 19.6286 36.807 19.6186C39.5928 19.0127 42.6195 19.7926 44.7852 21.9583C48.011 25.1841 48.1622 30.3203 45.239 33.7252L42.6049 36.3929C42.5074 36.4915 42.3483 36.492 42.2502 36.394L35.8285 29.9723Z" fill="url(#paint1_linear_15_10150)"/>
</g>
<defs>
<filter id="filter0_ddd_15_10150" x="0" y="0" width="66" height="66" filterUnits="userSpaceOnUse" color-interpolation-filters="sRGB">
<feFlood flood-opacity="0" result="BackgroundImageFix"/>
<feColorMatrix in="SourceAlpha" type="matrix" values="0 0 0 0 0 0 0 0 0 0 0 0 0 0 0 0 0 0 127 0" result="hardAlpha"/>
<feOffset dy="2"/>
<feGaussianBlur stdDeviation="2"/>
<feComposite in2="hardAlpha" operator="out"/>
<feColorMatrix type="matrix" values="0 0 0 0 0 0 0 0 0 0 0 0 0 0 0 0 0 0 0.02 0"/>
<feBlend mode="normal" in2="BackgroundImageFix" result="effect1_dropShadow_15_10150"/>
<feColorMatrix in="SourceAlpha" type="matrix" values="0 0 0 0 0 0 0 0 0 0 0 0 0 0 0 0 0 0 127 0" result="hardAlpha"/>
<feMorphology radius="1" operator="erode" in="SourceAlpha" result="effect2_dropShadow_15_10150"/>
<feOffset dy="1"/>
<feGaussianBlur stdDeviation="3"/>
<feComposite in2="hardAlpha" operator="out"/>
<feColorMatrix type="matrix" values="0 0 0 0 0 0 0 0 0 0 0 0 0 0 0 0 0 0 0.02 0"/>
<feBlend mode="normal" in2="effect1_dropShadow_15_10150" result="effect2_dropShadow_15_10150"/>
<feColorMatrix in="SourceAlpha" type="matrix" values="0 0 0 0 0 0 0 0 0 0 0 0 0 0 0 0 0 0 127 0" result="hardAlpha"/>
<feOffset dy="1"/>
<feGaussianBlur stdDeviation="1"/>
<feComposite in2="hardAlpha" operator="out"/>
<feColorMatrix type="matrix" values="0 0 0 0 0 0 0 0 0 0 0 0 0 0 0 0 0 0 0.03 0"/>
<feBlend mode="normal" in2="effect2_dropShadow_15_10150" result="effect3_dropShadow_15_10150"/>
<feBlend mode="normal" in="SourceGraphic" in2="effect3_dropShadow_15_10150" result="shape"/>
</filter>
<linearGradient id="paint0_linear_15_10150" x1="18.2309" y1="19.6925" x2="47.7694" y2="44.3078" gradientUnits="userSpaceOnUse">
<stop stop-color="#2F54EB"/>
<stop offset="1" stop-color="#597EF7"/>
</linearGradient>
<linearGradient id="paint1_linear_15_10150" x1="47.7694" y1="19.6925" x2="18.2309" y2="44.3078" gradientUnits="userSpaceOnUse">
<stop stop-color="#2F54EB"/>
<stop offset="1" stop-color="#597EF7"/>
</linearGradient>
</defs>
</svg>
